<svg xmlns="http://www.w3.org/2000/svg" width="256" height="256" viewBox="0 0 100 100"><rect width="100" height="100" rx="50" fill="#b8b8b5"></rect><path d="M25.73 66.45L21.03 66.45L21.03 33.55L39.04 33.55Q47.03 33.55 47.03 41.55L47.03 41.55L47.03 46.24Q47.03 54.25 39.04 54.25L39.04 54.25L25.73 54.25L25.73 66.45ZM25.73 38.25L25.73 49.54L38.79 49.54Q40.67 49.54 41.50 48.71Q42.32 47.89 42.32 46.01L42.32 46.01L42.32 41.78Q42.32 39.90 41.50 39.08Q40.67 38.25 38.79 38.25L38.79 38.25L25.73 38.25ZM74.27 52.36L58.30 52.36Q57.33 52.36 56.47 51.99Q55.61 51.61 54.97 50.98Q54.33 50.34 53.96 49.48Q53.59 48.62 53.59 47.66L53.59 47.66L53.59 38.25Q53.59 37.29 53.96 36.43Q54.33 35.56 54.97 34.93Q55.61 34.30 56.47 33.92Q57.33 33.55 58.30 33.55L58.30 33.55L74.27 33.55Q75.23 33.55 76.09 33.92Q76.95 34.30 77.60 34.93Q78.24 35.56 78.61 36.43Q78.97 37.29 78.97 38.25L78.97 38.25L78.97 42.50L74.27 42.50L74.27 38.25L58.30 38.25L58.30 47.66L74.27 47.66Q75.23 47.66 76.09 48.03Q76.95 48.39 77.60 49.04Q78.24 49.68 78.61 50.54Q78.97 51.40 78.97 52.36L78.97 52.36L78.97 61.75Q78.97 62.71 78.61 63.57Q78.24 64.44 77.60 65.08Q76.95 65.72 76.09 66.09Q75.23 66.45 74.27 66.45L74.27 66.45L57.84 66.45Q56.87 66.45 56.01 66.09Q55.15 65.72 54.51 65.08Q53.87 64.44 53.50 63.57Q53.13 62.71 53.13 61.75L53.13 61.75L53.13 57.53L57.84 57.53L57.84 61.75L74.27 61.75L74.27 52.36Z" fill="#fff703"></path></svg>